# xmcd CD database file
#
# Track frame offsets:
#	150
#	35455
#	59235
#	67855
#	90322
#	104587
#	118137
#	131835
#	145645
#	158610
#	171622
#	190637
#	204427
#	226862
#	250187
#	262675
#	276732
#
# Disc length: 3881 seconds
#
# Revision: 2
# Processed by: cddbd v1.5.1PL0 Copyright (c) Steve Scherf et al.
# Submitted via: CDex 1.51
#
DISCID=f40f2711
DTITLE=Clifford Brown - The complete Paris session vol.3
DYEAR=1900
DGENRE=Jazz
TTITLE0=(Venez donc) Chez moi
TTITLE1=All weird(Master take1)
TTITLE2=All weird(Alternate take2)
TTITLE3=All weird(Alternate take3)
TTITLE4=Blue and brown
TTITLE5=I can dream, can't I?(Master take1)
TTITLE6=I can dream, can't I?(Alternate take2)
TTITLE7=I can dream, can't I?(Alternate take3)
TTITLE8=The song is you(Master take1)
TTITLE9=The song is you(Alternate take2)
TTITLE10=Come rain or come shine(Master take1)
TTITLE11=Come rain or come shine(Alternate take2)
TTITLE12=It might as well be spring(Master take1)
TTITLE13=It might as well be spring(Alternate take2)
TTITLE14=You're a lucky guy(Master take1)
TTITLE15=You're a lucky guy(Alternate take2)
TTITLE16=You're a lucky guy(Alternate take3)
EXTD=
EXTT0=
EXTT1=
EXTT2=
EXTT3=
EXTT4=
EXTT5=
EXTT6=
EXTT7=
EXTT8=
EXTT9=
EXTT10=
EXTT11=
EXTT12=
EXTT13=
EXTT14=
EXTT15=
EXTT16=
PLAYORDER=
